<?xml version="1.0" encoding="UTF-8" standalone="no"?>
<svg width="80px" height="80px" viewBox="0 0 80 80" version="1.1" xmlns="http://www.w3.org/2000/svg" xmlns:xlink="http://www.w3.org/1999/xlink" xmlns:sketch="http://www.bohemiancoding.com/sketch/ns">
    <!-- Generator: Sketch 3.3.3 (12072) - http://www.bohemiancoding.com/sketch -->
    <title>Handshake Copy</title>
    <desc>Created with Sketch.</desc>
    <defs></defs>
    <g id="Page-1" stroke="none" stroke-width="1" fill="none" fill-rule="evenodd" sketch:type="MSPage">
        <g id="Handshake-Copy" sketch:type="MSArtboardGroup" stroke="#FFFFFF" stroke-width="2">
            <g id="Handshake" sketch:type="MSLayerGroup" transform="translate(8.000000, 2.000000)">
                <path d="M9.70710678,24.8431458 L9.70710678,23.5863136 C9.70710678,23.5863136 10.2131188,9.20869046 25.345691,9.72045147 C40.4782632,10.2322125 40.4782632,23.5863136 40.4782632,23.5863136 C40.4782632,23.5863136 55.2003647,23.5863136 54.6943554,39.1467102 C54.1883462,54.7071068 40.4782632,54.7071068 40.4782632,54.7071068 L38.571067,54.7071068" id="Rectangle-15" stroke-linejoin="round" sketch:type="MSShapeGroup" transform="translate(32.207107, 32.207107) rotate(-45.000000) translate(-32.207107, -32.207107) "></path>
                <path d="M48.5,47.5 L49.2071068,46.7928932" id="Line" sketch:type="MSShapeGroup"></path>
                <path d="M33.6580426,19.0664471 C33.6580426,19.0664471 26.3183357,24.8865113 24.8363715,28.0093635 C23.3544072,31.1322156 24.2714811,36.3418747 24.2714811,36.3418747 C24.2714811,36.3418747 25.7907794,37.5482252 27.095933,36.9370541 C28.4010865,36.325883 28.4620453,36.0007603 29.3554945,33.9611572 C30.2489436,31.9215542 30.4678228,30.1995699 30.4678228,30.1995699 L35.5530238,25.1004382" id="Path-5" stroke-linecap="square" stroke-linejoin="round" sketch:type="MSShapeGroup" transform="translate(29.771976, 28.088154) rotate(-1.000000) translate(-29.771976, -28.088154) "></path>
                <g id="fingertibs" transform="translate(10.000000, 41.000000)" sketch:type="MSShapeGroup">
                    <path d="M1.71398776,5.13633505 C0.21964218,3.57701812 0.916666667,2.39130435 0.916666667,2.39130435 C0.916666667,2.39130435 1.34242725,1.45177709 2.29166667,0.956521739 C2.80689538,0.687706759 4.23646043,0.604046333 5.04166667,1.43478261 C5.33984856,1.74241872 5.98009479,3.36763482 5.50000007,4.30434786 C4.5833334,6.09285663 3.20833333,6.69565198 1.71398776,5.13633505 Z" id="Path-5"></path>
                    <path d="M5.38065442,8.96242201 C3.88630885,7.40310508 4.58333333,6.2173913 4.58333333,6.2173913 C4.58333333,6.2173913 5.92576059,4.3213423 6.875,3.82608696 C7.39022871,3.55727198 8.81979376,3.47361155 9.625,4.30434782 C9.9231819,4.61198393 10.5634281,6.23720004 10.0833334,7.17391308 C9.16666673,8.96242185 7.79166667,9.56521739 7.79166667,9.56521739 C7.79166667,9.56521739 6.875,10.5217389 5.38065442,8.96242201 Z" id="Path-5-Copy"></path>
                    <path d="M8.839996,13.0272037 C7.34565042,11.4678868 8.04267491,10.282173 8.04267491,10.282173 C8.04267491,10.282173 10.3017688,7.42960226 11.2510082,6.93434691 C11.766237,6.66553193 13.195802,6.5818715 14.0010082,7.41260778 C14.2991901,7.72024389 14.9394364,9.34545999 14.4593416,10.282173 C13.542675,12.0706818 11.2510082,13.6299991 11.2510082,13.6299991 C11.2510082,13.6299991 10.3343416,14.5865206 8.839996,13.0272037 Z" id="Path-5-Copy-2"></path>
                    <path d="M12.7139878,16.6145959 C11.2196422,15.055279 11.9166667,13.8695652 11.9166667,13.8695652 C11.9166667,13.8695652 14.0924273,11.0604727 15.0416667,10.5652174 C15.5568954,10.2964024 16.9864604,10.212742 17.7916667,11.0434783 C18.0898486,11.3511144 18.7300948,12.9763305 18.2500001,13.9130435 C17.3333334,15.7015523 15.125,17.2173913 15.125,17.2173913 C15.125,17.2173913 14.2083333,18.1739129 12.7139878,16.6145959 Z" id="Path-5-Copy-3"></path>
                    <path d="M16.464996,19.7228559 C14.9706504,18.1635389 15.6676749,16.9778252 15.6676749,16.9778252 C15.6676749,16.9778252 17.0101022,15.0817762 17.9593416,14.5865208 C18.4745703,14.3177058 19.9041353,14.2340454 20.7093416,15.0647817 C21.0075235,15.3724178 21.6477697,16.9976339 21.167675,17.9343469 C20.2510083,19.7228557 18.8760082,20.3256513 18.8760082,20.3256513 C18.8760082,20.3256513 17.9593416,21.2821728 16.464996,19.7228559 Z" id="Path-5-Copy-4"></path>
                </g>
                <g id="fingers" transform="translate(41.500000, 43.000000) scale(-1, 1) translate(-41.500000, -43.000000) translate(30.000000, 24.000000)" sketch:type="MSShapeGroup" stroke-linecap="round" stroke-linejoin="round">
                    <path d="M10.5000001,15.5 C10.5000001,15.5 6.99999984,19.0000006 4.00000008,22.5000006 C3.58372493,22.697073 2.08333344,23.0000006 1.29166671,22.0000006 C0.499999984,21.0000006 0.5,19.5000006 0.5,19.5000006 C0.5,19.5000006 4.10961443,14.0384961 7.74604732,10.2719297 C10.8360072,7.07139242 13.9548194,3.65619958 17,0.499999989" id="Path-5"></path>
                    <path d="M13.9999998,19.9999998 L7.79166667,26.5652174 C7.79166667,26.5652174 6.875,27.5217389 5.38065442,25.962422 C3.88630885,24.4031051 4.58333333,23.2173913 4.58333333,23.2173913 L10.4999998,15.5" id="Path-5-Copy"></path>
                    <path d="M18.5000005,23.9999999 C16.5000005,25.9999999 11.4583333,30.3913043 11.4583333,30.3913043 C11.4583333,30.3913043 10.5416667,31.3478259 9.04732109,29.788509 C7.55297551,28.229192 8.25,27.0434783 8.25,27.0434783 C8.25,27.0434783 13.0507606,20.4952553 14,19.9999999" id="Path-5-Copy-2"></path>
                    <path d="M22.5,28 C20.5000005,30 15,34.5 15,34.5 C15,34.5 13.9943456,35.059317 12.5,33.5 C11.5,32.5 12,31 12,31 C12,31 17.0000001,25.9999999 18.5000001,24" id="Path-5-Copy-3"></path>
                    <path d="M22.0000001,35.5 C22.0000001,35.5 20.5000001,37 19.2603548,37.5 C18.0016294,38.0076958 17.5,37.5 16.5,36.5 C15,35 17,33.5 17,33.5 L22.4999998,28" id="Path-5-Copy-4"></path>
                </g>
            </g>
        </g>
    </g>
</svg>