<?xml version="1.0" encoding="UTF-8" standalone="no"?>
<svg width="80px" height="80px" viewBox="0 0 80 80" version="1.1" xmlns="http://www.w3.org/2000/svg" xmlns:xlink="http://www.w3.org/1999/xlink" xmlns:sketch="http://www.bohemiancoding.com/sketch/ns">
    <!-- Generator: Sketch 3.3.3 (12072) - http://www.bohemiancoding.com/sketch -->
    <title>Calender Copy</title>
    <desc>Created with Sketch.</desc>
    <defs></defs>
    <g id="Page-1" stroke="none" stroke-width="1" fill="none" fill-rule="evenodd" sketch:type="MSPage">
        <g id="Calender-Copy" sketch:type="MSArtboardGroup">
            <text id="3" sketch:type="MSTextLayer" font-family="Hannotate SC" font-size="12" font-weight="bold" fill="#FFFFFF">
                <tspan x="28" y="38">3</tspan>
            </text>
            <path d="M27.7092634,44 L18.9988937,44 C18.44722,44 18,43.5601869 18,43.0034652 L18,16.9965348 C18,16.4461638 18.4398131,16 18.9965348,16 L45.0034652,16 C45.5538362,16 46,16.4501065 46,16.9952807 L46,30.0128348" id="Rectangle-29" stroke="#FFFFFF" stroke-width="2" sketch:type="MSShapeGroup"></path>
            <path d="M18.5,24 L45.5,24" id="Line" stroke="#FFFFFF" stroke-width="2" stroke-linecap="square" sketch:type="MSShapeGroup"></path>
            <circle id="Oval-21" stroke="#FFFFFF" stroke-width="2" sketch:type="MSShapeGroup" cx="38" cy="20" r="1"></circle>
            <circle id="Oval-22" stroke="#FFFFFF" stroke-width="2" sketch:type="MSShapeGroup" cx="26" cy="20" r="1"></circle>
            <path d="M39.637467,36.5146457 L39.637467,27.6197089 C39.637467,27.0665624 40.0693615,26.7145535 40.6134474,26.8360012 L41.877467,27.1181485 L44.117467,26.6181485 L46.357467,27.1181485 L48.0202028,26.6181485 L49.6095106,27.1181485 L51.4686058,26.6181485 L52.9213768,27.1181485 L54.9935352,26.6181485 L57.3769803,27.1181485 L59.9710489,26.6181485 L62.3130404,27.1181485 L63.8181918,26.6181485 L65.4907641,27.1181485 L66.6646112,26.8447415 C67.2019046,26.7195976 67.637467,27.073454 67.637467,27.6099516 L67.637467,45.6263453 C67.637467,46.1741031 67.1987473,46.6181485 66.6412964,46.6181485 L51.1372396,46.6181485" id="Rectangle-15-Copy" stroke="#FFFFFF" stroke-width="2" sketch:type="MSShapeGroup" transform="translate(53.637467, 36.618148) rotate(-27.000000) translate(-53.637467, -36.618148) "></path>
            <text id="2" sketch:type="MSTextLayer" transform="translate(53.412213, 35.625198) rotate(-27.000000) translate(-53.412213, -35.625198) " font-family="Hannotate SC" font-size="12" font-weight="bold" fill="#FFFFFF">
                <tspan x="48.9122133" y="40.125198">2</tspan>
            </text>
            <path d="M26.637467,43.6099516 C26.637467,43.0621938 27.0693615,42.7145535 27.6134474,42.8360012 L28.877467,43.1181485 L31.117467,42.6181485 L33.357467,43.1181485 L35.0202028,42.6181485 L36.6095106,43.1181485 L38.4686058,42.6181485 L39.9213768,43.1181485 L41.9935352,42.6181485 L44.3769803,43.1181485 L46.9710489,42.6181485 L49.3130404,43.1181485 L50.8181918,42.6181485 L52.4907641,43.1181485 L53.6646112,42.8447415 C54.2019046,42.7195976 54.637467,43.073454 54.637467,43.6099516 L54.637467,61.6263453 C54.637467,62.1741031 54.1976538,62.6181485 53.6409321,62.6181485 L27.6340018,62.6181485 C27.0836308,62.6181485 26.637467,62.1628429 26.637467,61.6263453 L26.637467,43.6099516 Z" id="Rectangle-15" stroke="#FFFFFF" stroke-width="2" sketch:type="MSShapeGroup" transform="translate(40.637467, 52.618148) rotate(7.000000) translate(-40.637467, -52.618148) "></path>
            <text id="1" sketch:type="MSTextLayer" transform="translate(41.564432, 52.970213) rotate(7.000000) translate(-41.564432, -52.970213) " font-family="Hannotate SC" font-size="12" font-weight="bold" fill="#FFFFFF">
                <tspan x="37.0644319" y="57.4702132">1</tspan>
            </text>
        </g>
    </g>
</svg>