<?xml version="1.0" encoding="UTF-8" standalone="no"?>
<svg width="80px" height="80px" viewBox="0 0 80 80" version="1.1" xmlns="http://www.w3.org/2000/svg" xmlns:xlink="http://www.w3.org/1999/xlink" xmlns:sketch="http://www.bohemiancoding.com/sketch/ns">
    <!-- Generator: Sketch 3.3.3 (12072) - http://www.bohemiancoding.com/sketch -->
    <title>Camera Copy</title>
    <desc>Created with Sketch.</desc>
    <defs></defs>
    <g id="Page-1" stroke="none" stroke-width="1" fill="none" fill-rule="evenodd" sketch:type="MSPage">
        <g id="Camera-Copy" sketch:type="MSArtboardGroup" stroke="#FFFFFF" stroke-width="2">
            <g id="camera" sketch:type="MSLayerGroup" transform="translate(20.000000, 24.000000)">
                <path d="M8,4.00189865 L8,1.99810135 C8,0.894580447 8.90195036,0 10.0085302,0 L17.9914698,0 C19.1007504,0 20,0.886706352 20,1.99810135 L20,4.00189865" id="Rectangle-7" sketch:type="MSShapeGroup"></path>
                <path d="M0,7.00086422 C0,5.89581743 0.896660339,5 1.99749218,5 L40.0025078,5 C41.1056923,5 42,5.90162726 42,7.00086422 L42,25.9991358 C42,27.1041826 41.1033397,28 40.0025078,28 L1.99749218,28 C0.894307712,28 0,27.0983727 0,25.9991358 L0,7.00086422 Z M14.5,25 C19.1944204,25 23,21.1944204 23,16.5 C23,11.8055796 19.1944204,8 14.5,8 C9.80557963,8 6,11.8055796 6,16.5 C6,21.1944204 9.80557963,25 14.5,25 Z" id="Rectangle-5" sketch:type="MSShapeGroup"></path>
                <path d="M32.5,5 C32.5,4.17157288 33.174408,3.5 34.0028992,3.5 L36.4971008,3.5 C37.3271291,3.5 38,4.16579723 38,5 L38,5" id="Rectangle-21" sketch:type="MSShapeGroup"></path>
            </g>
        </g>
    </g>
</svg>