<svg xmlns="http://www.w3.org/2000/svg" xmlns:xlink="http://www.w3.org/1999/xlink" version="1.1" x="0px" y="0px" viewBox="0 0 90 90" enable-background="new 0 0 90 90" xml:space="preserve">
	<path fill="rgb(255, 255, 255)" d="M44.5,27.428c-8.268,0-15.5,6.727-15.5,14.995v28.49c0,8.268,7.232,14.994,15.5,14.994c8.268,0,15.5-6.727,15.5-14.994  v-28.49C60,34.155,52.768,27.428,44.5,27.428z M44.5,82.909c-7.476,0-13.5-5.942-13.5-13.246v-25.99  c0-7.304,6.024-13.246,13.5-13.246c7.475,0,13.5,5.942,13.5,13.246v25.99C58,76.967,51.975,82.909,44.5,82.909z"/>
	<path fill="rgb(255, 255, 255)" d="M46,44c0,1.104-0.896,2-2,2l0,0c-1.104,0-2-0.896-2-2v-7c0-1.104,0.896-2,2-2l0,0c1.104,0,2,0.896,2,2V44z"/>
	<polygon fill="rgb(255, 255, 255)" points="54.515,14 44.135,3.621 33.958,14 40,14 40,23 48,23 48,14 "/>
	<polygon fill="rgb(255, 255, 255)" points="33.958,62 44.338,72.379 54.515,62 48,62 48,53 40,53 40,62 "/>
</svg>