<?xml version="1.0" encoding="UTF-8" standalone="no"?>
<svg width="80px" height="80px" viewBox="0 0 80 80" version="1.1" xmlns="http://www.w3.org/2000/svg" xmlns:xlink="http://www.w3.org/1999/xlink" xmlns:sketch="http://www.bohemiancoding.com/sketch/ns">
    <!-- Generator: Sketch 3.3.3 (12072) - http://www.bohemiancoding.com/sketch -->
    <title>Camera</title>
    <desc>Created with Sketch.</desc>
    <defs></defs>
    <g id="Page-1" stroke="none" stroke-width="1" fill="none" fill-rule="evenodd" sketch:type="MSPage">
        <g id="Camera" sketch:type="MSArtboardGroup" stroke="#000000">
            <g id="camera" sketch:type="MSLayerGroup" transform="translate(20.000000, 25.000000)">
                <path d="M8,4.00189865 L8,1.99810135 C8,0.894580447 8.90195036,0 10.0085302,0 L17.9914698,0 C19.1007504,0 20,0.886706352 20,1.99810135 L20,4.00189865" id="Rectangle-7" sketch:type="MSShapeGroup"></path>
                <path d="M0,6.00086422 C0,4.89581743 0.896660339,4 1.99749218,4 L40.0025078,4 C41.1056923,4 42,4.90162726 42,6.00086422 L42,24.9991358 C42,26.1041826 41.1033397,27 40.0025078,27 L1.99749218,27 C0.894307712,27 0,26.0983727 0,24.9991358 L0,6.00086422 Z M14.5,24 C19.1944204,24 23,20.1944204 23,15.5 C23,10.8055796 19.1944204,7 14.5,7 C9.80557963,7 6,10.8055796 6,15.5 C6,20.1944204 9.80557963,24 14.5,24 Z" id="Rectangle-5" sketch:type="MSShapeGroup"></path>
                <path d="M32.5,4 C32.5,3.17157288 33.174408,2.5 34.0028992,2.5 L36.4971008,2.5 C37.3271291,2.5 38,3.16579723 38,4 L38,4" id="Rectangle-21" sketch:type="MSShapeGroup"></path>
            </g>
        </g>
    </g>
</svg>